<svg xmlns="http://www.w3.org/2000/svg" xmlns:xlink="http://www.w3.org/1999/xlink" width="1920.91" height="153.013" viewBox="0 0 1920.91 153.013">
  <defs>
    <style>
      .cls-1 {
        fill: url(#linear-gradient);
      }
    </style>
    <linearGradient id="linear-gradient" x1="0.5" x2="0.5" y2="1" gradientUnits="objectBoundingBox">
      <stop offset="0" stop-color="#178e78"/>
      <stop offset="0.674" stop-color="#289782"/>
      <stop offset="1" stop-color="#fff"/>
    </linearGradient>
  </defs>
  <path id="chao_proximo" class="cls-1" d="M10.992,1043.276l24.18-23.535,41.87,9.1,19.01-9.1,33.017-4.287,38.02,8.034,51.027-8.034c17.009-2.678,24.012-5.356,41.021-4.464s20.01,12.5,46.024,12.5,69.036-6.249,97.05-8.034,46.024.893,75.039-4.464,59.031-10.713,72.037-14.283,13.248-27.738,18.009,0-2,14.822,17.009,23.034,34.018,15.353,58.03,13.568,25.013-3.571,37.019-9.82,58.03-9.82,82.043-8.034,57.03,13.391,57.03,13.391l51.027,8.927s49.026-14.283,69.036-14.283,71.037,5.356,71.037,5.356,64.033,5.356,76.04,4.464,81.042-9.82,81.042-9.82l57.03,14.283s75.039-8.927,85.044-8.927,48.025-3.571,54.028-5.356,61.032,8.034,66.034,9.82,32.017-10.712,36.019-9.82,54.028-7.142,61.032-7.142,52.027,4.464,76.04,7.142,63.033,7.142,75.039,5.356,81.042-19.639,88.046-20.532,23.012,7.142,35.018,8.034,54.028,4.464,58.03,7.142,42.022,5.356,42.022,5.356l20.01,11.605v88.04L-.91,1136.56v-90.12Z" transform="translate(0.91 -983.546)"/>
</svg>
