<svg xmlns="http://www.w3.org/2000/svg" width="1920" height="151.341" viewBox="0 0 1920 151.341">
  <defs>
    <style>
      .cls-1 {
        fill: #46e0c6;
      }
    </style>
  </defs>
  <path id="chao_longe" class="cls-1" d="M10.986,1073.329l24.168-35.377L77,1051.636l19-13.685,33-6.443,38,12.077,51-12.077c17-4.026,24-8.051,41-6.709s20,18.786,46,18.786,69-9.393,97-12.077,46,1.342,75-6.709,59-16.1,72-21.47,13.242-41.695,18,0-2,22.28,17,34.623,34,23.078,58,20.394,25-5.367,37-14.761,58-14.761,82-12.077,57,20.128,57,20.128l51,13.419s49-21.47,69-21.47,71,8.051,71,8.051,64,8.052,76,6.71,81-14.761,81-14.761l57,21.47s75-13.419,85-13.419,48-5.367,54-8.051,61,12.077,66,14.761,32-16.1,36-14.761,54-10.735,61-10.735,52,6.709,76,10.735,63,10.735,75,8.051,81-29.521,88-30.863,23,10.735,35,12.077,54,6.709,58,10.735,42,8.051,42,8.051l20,17.445v53.675l-1920,12.131v-56.8Z" transform="translate(0.91 -983.546)"/>
</svg>
