<svg xmlns="http://www.w3.org/2000/svg" xmlns:xlink="http://www.w3.org/1999/xlink" width="758.797" height="862.498" viewBox="0 0 758.797 862.498">
  <defs>
    <filter id="RORAIMA" x="0" y="0" width="758.797" height="862.498" filterUnits="userSpaceOnUse">
      <feOffset dx="-12" dy="13" input="SourceAlpha"/>
      <feGaussianBlur stdDeviation="12" result="blur"/>
      <feFlood flood-color="#2a2a2a"/>
      <feComposite operator="in" in2="blur"/>
      <feComposite in="SourceGraphic"/>
    </filter>
  </defs>
  <g id="Roraima-2" data-name="Roraima" transform="translate(48 23)">
    <g transform="matrix(1, 0, 0, 1, -48, -23)" filter="url(#RORAIMA)">
      <path id="RORAIMA-3" data-name="RORAIMA" d="M574.584,198.991c-.5,0-4.837-5.671-6.339-9.842s-7.339-9.008-11.176-9.341-8.507,2.836-8.507,6.005,3.67,6.005,6.339,7.84,3.836.834,5,5.338a66.258,66.258,0,0,0,7.84,15.68c3.82,5.424,8.242,8.5,9.008,8.674.794.176,5.454,7.408,11.677,12.677,5.164,4.374,11.921,6.849,13.178,7.006,2.669.334,11.677,10.175,13.011,12.01s6.839,4.337,6.505,9.341-1,8.507-3.169,10.842-4.5,3.169-3.336,7.84,4.671,11.51,3.67,18.849-2.335,12.677-.334,14.846,15.68,22.185,17.515,23.853,6.339,5.672,6.005,8.507-.334,8.34.834,9.675,2,4.337,1.168,7.506-1.668,7.673-1.168,9.008-6,7.34-5.338,10.342-1.334,5.838,4.5,5.838,19.183-2.169,22.018-1.168,4.671,3.67,6.506,4.5,47.373,1.835,47.373,1.835v18.516s-2.169,1.334-1.5,2.836,9.341,9.008,11.677,8.841,16.848-3.336,17.348-2a55.082,55.082,0,0,1,1,7.173s9.174,10.509,13.678,11.009,19.35,0,19.35,0,13.511,8.007,15.013,8.007,3.336,6.672,0,10.342-2.335,6.172-2,8.841,2.335,7.006-.834,9.341-3.67,12.01-6.005,10.509,8.34,14.012,10.676,15.513c1.144.735,5.189,2.462,7.339,5.838,1.955,3.068,2,7.806,2.169,9.508.334,3.336,6.339,13.345,6.339,14.846s.5,12.677,2.669,13.845,3.5,3,5.338,6.339,2.335,1.168,2.836,3.67,1.668,19.85,1.668,20.684,2.836,5-3.5,8.34-8.841,3-8.007,6.172,5.338,9.675,5,12.844-2.5,3-2.669,7.339-.167,9.008,2.669,9.174,8.507,2.669,6.505,12.01,2.335,18.015,2.669,20.517,0,10.509,1,10.509c.534,0,7.033,1.1,10.008,6.339,2.391,4.211,1.335,12.577,1.335,13.511,0,2,8.674,10.008,9.174,10.008s-2.836,3-2.836,4.5,2.836,11.176,2.836,11.176h2.335v10.175s-6.506,3.169-7.506,5.338-2.5,8.34-3.5,8.174,2.169,13.511,2.335,12.677-8.841,12.01-10.175,11.343-10.843-4.837-12.677-3.837-2.335,9.341,0,11.51,7.173,3.169,8.34,2.836,11.009,16.18,15.68,17.181,11.51,7.006,11.843,7.673,5,0,5,0-2.335,3.336,0,5.171S874,807.5,874.5,809.5s0,4.5,1,5,5.838,2.5,6.339,5.171a35.82,35.82,0,0,0,3.768,9.031,18.865,18.865,0,0,0,4.252,4.707s1.773,3.558,2.655,3.609c2.836.167,10.009-3.5,11.343-3.67s5.338,4.337,5.338,4.337h4.837l3.5,4.337s5.838.5,6.172,1,10.175,14.012,10.175,14.012,5.5-2.335,2.335-6-5.838-5.5-6.505-7.339-4.671-4-6.005-6.672-3-4.671-3.169-8.173-1.168-5.838,1.334-11.843,5.672-10.509,4.67-15.346,2.169-3.336.834-9.508-3.063-11.278-2.273-13.548,4.244-7.3,4.244-7.3-.2-7.5,0-8.784,14.213-16.779,16.878-17.273,7.205.79,12.437-2.961c1.423-1.02,4.378-1.29,5.626-2.369,2.649-2.288,2.476-5.059,2.764-6.712.395-2.27,14.016-.493,14.016-.493s5.922,5.527,7.8,5.725,11.844.691,11.844.691l2.073,7.205s6.515,3.652,6.811,6.317,8.39,8.094,8.39,11.548-1.283,10.265,2.764,11.45,13.72,2.764,14.707,1.777-1.48-4.244,4.244-3.948a82.526,82.526,0,0,0,9.574,0s1.086-9.278,6.317-10.66,11.548-2.172,13.72-4.047c.875-.756,3.356-.271,3.356-3.159s-1.353-7.093-3.356-8.39a16.692,16.692,0,0,1-6.514-8.094c-1.086-2.862,3.652-15.891,4.343-17.47s6.119-8.489,6.021-10.66-.493-8.291-.493-8.291,7.7-8.982,7.6-10.956-.79-3.948,1.382-7.205,10.364-10.66,11.055-14.114-.888-7.205.493-8.291,9.772-4.244,9.87-6.416,0-9.969,0-9.969l132.291-.118V531.655a14.124,14.124,0,0,0-10.591-8.982c-8.192-1.481-17.174-.987-21.122-2.566-1.966-.786-7.5-3.751-7.5-3.751s-4.439-4.631-5.034-6.514c-1.184-3.751-2.566-3.455-2.566-3.455l-.888-6.12h-5.922l-7.227-7.3s-12.83-14.525-13.667-15.641c-1.367-1.822-9.794-.531-11.085-.987s-6.3-1.594-3.113-4.328,4.556-4.556,4.024-6.53-2.354-2.05-4.556-2.885a10.812,10.812,0,0,0-4.632-1.063c-1.291.076-2.505,3.265-3.417.531s-3.189-8.276-.683-10.478,1.822-8.2,2.354-9.111-.152-1.9-.683-4.1-1.062-1.974.683-4.4-1.063-5.77-.683-11.465,1.595-10.781-1.594-11.085-6.15-.38-6.15-.38-11.389-6.909-11.465-7.744.683-11.92.683-11.92a11.377,11.377,0,0,1-3.113-5.618c-.531-3.189-.683-6-2.126-7.744s-1.974-.987-2.278-3.644-4.48-5.391-4.328-8.352,1.822-24.22,1.822-24.22a7.655,7.655,0,0,0,1.9-3.72c.38-2.2.283-11.724.531-13.363.38-2.506,5.163-7.137,6-9.718s-1.822-6.605,0-8.655,8.276-15.641,9.187-17.083-.3-9.263,0-11.161,1.67-2.278,1.974-4.707-6.378-7.213-5.391-9.567,5.922-7.213,11.085-8.2,11.237-7.365,11.313-8.807-1.974-5.694.532-6.681,7.82-1.9,8.427-4.4-.911-7.289.608-8.959,5.922-3.8,7.061-4.631.38-4.328-1.291-4.556-5.467.911-5.77-.607-5.922-10.857-7.745-11.692,1.746-4.252,1.746-6.226-7.745-3.265-9.415-5.694-.759-9.566-.759-9.566a7.823,7.823,0,0,1,.38-4.783c1.333-2.889,4.616-6.146,4.707-7.289.152-1.9-13.666-11.161-14.122-11.161s-5.846.683-6.3-.38,0-2.581-2.657-2.05-3.417.835-3.948-.987a3.4,3.4,0,0,0-4.252-2.43c-2.126.456-3.417,2.809-4.252,2.43s-7.562.813-8.747-.667.395-4.935-1.875-3.948-.889,4.442-3.849,3.158-7.9-5.429-5.133-7.3c.973-.66.641-1.727,2.566-2.961a20.531,20.531,0,0,1,5.133-1.974c2.172-.79,6.712-10.759,7.4-13.424s1.283-11.647,1.875-14.312,1.875-12.831,2.171-15.5.987-5.133,1.184-7.6.79-4.738-.79-6.12-8.489-4.047-10.561-6.712-2.961-8.587-3.849-9.574-4.738-.3-6.416,0-1.974-3.455-3.257-3.652-7.8.888-9.278,2.468-2.961,5.626-5.922,5.429-7.6-2.961-9.278-1.974-1.974,5.33-4.047,4.639-.888-2.27-4.343-1.777-11.548,0-11.548,0a3.041,3.041,0,0,0-3.356-2.862c-3.159.2-14.608,1.382-14.608,1.382s5.033,0,7.008,2.764,10.956,21.912,9.969,25.86-10.956,17.964-14.312,19.543-18.161,10.265-20.135,10.166-1.974-.592-1.974-.592-2.764,9.574-3.356,11.252-.789,3.751-1.875,5.231-4.047,5.034-7.5,5.725a26.4,26.4,0,0,1-7.3.494,23.784,23.784,0,0,0-4.639,0c-.494.2-.1,2.468-3.553,1.974s-7.8-2.369-8.982-2.468-11.45-.395-11.45-.395,2.665,2.468,2.665,5.527.395,5.527-4.244,6.021-12.437-.494-14.707.395-6.811,2.468-7.008,4.738,2.665,7.008.494,10.166-2.862,3.849-4.935,3.948-4.836-.1-5.823,0-4.244,1.678-5.626,1.184a16.117,16.117,0,0,0-5.33-1.184c-1.579.1-4.343-.691-6.909.79s-5.626,7.8-8.883,8.982c-1.928.7-4.269,2.739-7.7,3.06s-3.927-1.374-6.021-1.777c-5.133-.987-7.008-1.283-8.587-.79s-3.948,6.909-9.081,7.5-9.377.888-14.016-1.283-17.076-7.7-19.84-7.995-6.909-.3-7.205,0,2.566,4.836-1.875,4.935-6.909.395-6.909.987-1.086,11.055-2.369,11.153-19.05-2.566-20.925-.592c-.776.817-2.17-.442-3.06,1.875-1.036,2.694.19,8.289-.1,10.66-.494,4.047-2.764-.395-2.27,4.145s4.738,14.016,5.429,17.273,2.073,6.021-1.185,5.429-8.192-3.652-9.969-2.171-2.171,7.5-5.922,8.39-4.836.1-6.613,1.283-.592,5.133-4.244,3.849-13.522-18.556-15.5-20.135c-.9-.723-10.02-2.358-13.424-7.107-3.7-5.167-1.666-13.583-1.184-14.707.888-2.073-21.912-.494-21.912-.494a14.872,14.872,0,0,0-3.948,7.995c-.592,4.738-6.712,5.725-9.179,3.159s-5.33-12.437-7.205-13.424-7.107-3.751-8.39-2.566.494,7.107-2.27,7.7-11.647,1.283-15,0-6.613-1.579-8.39,0-1.579,5.429-5.231,5.626-9.081,1.875-8.686-1.777a10.17,10.17,0,0,0-5.133-9.574c-3.356-1.777-5.231-2.862-5.527-7.6s-8.686-9.377-12.831-9.475-19.642-2.665-24.775-.888a52.648,52.648,0,0,1-11.943,2.665A33.537,33.537,0,0,1,574.584,198.991Z" transform="translate(-500.56 -43.55)" fill="#fff"/>
    </g>
  </g>
</svg>
